<?xml version="1.0" encoding="UTF-8" standalone="no"?>
<!DOCTYPE svg PUBLIC "-//W3C//DTD SVG 1.1//EN" "http://www.w3.org/Graphics/SVG/1.1/DTD/svg11.dtd">
<svg width="100%" height="100%" viewBox="0 0 14 14" version="1.1" xmlns="http://www.w3.org/2000/svg" xmlns:xlink="http://www.w3.org/1999/xlink" xml:space="preserve" xmlns:serif="http://www.serif.com/" style="fill-rule:evenodd;clip-rule:evenodd;stroke-linejoin:round;stroke-miterlimit:2;">
    <path d="M2,12L0,12L0,14L2,14L2,12ZM14,12L12,12L12,14L14,14L14,12ZM4,10L2,10L2,12L4,12L4,10ZM12,10L10,10L10,12L12,12L12,10ZM6,8L4,8L4,10L6,10L6,8ZM10,8L8,8L8,10L10,10L10,8ZM8,6L6,6L6,8L8,8L8,6ZM6,4L4,4L4,6L6,6L6,4ZM10,4L8,4L8,6L10,6L10,4ZM2,2L2,0L0,0L0,2L2,2L2,4L4,4L4,2L2,2ZM12,2L10,2L10,4L12,4L12,2ZM14,-0L12,-0L12,2L14,2L14,-0Z" style="fill:rgb(255,0,101);"/>
</svg>
