<?xml version="1.0" encoding="UTF-8" standalone="no"?>
<!DOCTYPE svg PUBLIC "-//W3C//DTD SVG 1.1//EN" "http://www.w3.org/Graphics/SVG/1.1/DTD/svg11.dtd">
<svg width="100%" height="100%" viewBox="0 0 30 26" version="1.1" xmlns="http://www.w3.org/2000/svg" xmlns:xlink="http://www.w3.org/1999/xlink" xml:space="preserve" xmlns:serif="http://www.serif.com/" style="fill-rule:evenodd;clip-rule:evenodd;stroke-linejoin:round;stroke-miterlimit:2;">
    <path d="M14,24L8,24L8,22L6,22L6,18L4,18L4,22L6,22L6,26L14,26L14,24ZM14,26L24,26L24,22L22,22L22,24L14,24L14,26ZM26,22L26,18L24,18L24,22L26,22ZM28,16L26,16L26,18L28,18L28,16ZM28,14L26,14L26,16L28,16L28,14ZM22,12L20,12L20,14L22,14L22,12ZM28,10L28,12L26,12L26,14L28,14L28,12L30,12L30,10L28,10ZM14,8L14,4L12,4L12,8L10,8L10,12L8,12L8,10L6,10L6,12L8,12L8,14L10,14L10,12L12,12L12,8L14,8ZM20,10L18,10L18,12L20,12L20,10ZM24,10L22,10L22,12L24,12L24,10ZM30,8L28,8L28,10L30,10L30,8ZM26,8L24,8L24,10L26,10L26,8ZM20,8L18,8L18,10L20,10L20,8ZM4,12L2,12L2,8L4,8L4,10L6,10L6,8L4,8L4,6L2,6L2,4L0,4L0,12L2,12L2,18L4,18L4,12ZM30,8L30,4L28,4L28,6L26,6L26,8L30,8ZM18,8L18,4L16,4L16,8L18,8ZM16,2L14,2L14,4L16,4L16,2ZM16,0L14,0L14,2L16,2L16,0Z" style="fill:rgb(255,0,122);"/>
</svg>
