<?xml version="1.0" encoding="UTF-8" standalone="no"?>
<!DOCTYPE svg PUBLIC "-//W3C//DTD SVG 1.1//EN" "http://www.w3.org/Graphics/SVG/1.1/DTD/svg11.dtd">
<svg width="100%" height="100%" viewBox="0 0 22 20" version="1.1" xmlns="http://www.w3.org/2000/svg" xmlns:xlink="http://www.w3.org/1999/xlink" xml:space="preserve" xmlns:serif="http://www.serif.com/" style="fill-rule:evenodd;clip-rule:evenodd;stroke-linejoin:round;stroke-miterlimit:2;">
    <path d="M18,-0L18,4L16,4L16,0L14,0L14,2L12,2L12,8L4,8L4,10L2,10L2,14L2,10L0,10L0,20L10,20L10,14L10,20L16,20L16,12L16,20L20,20L20,12L22,12L22,2L20,2L20,-0L18,-0ZM4,16L4,18L4,16ZM4,14L4,16L4,14ZM12,12L12,14L12,12ZM18,10L18,12L18,10ZM14,6L14,8L16,8L16,6L18,6L18,8L20,8L20,6L14,6Z" style="fill:rgb(181,0,52);"/>
</svg>
