<?xml version="1.0" encoding="UTF-8" standalone="no"?>
<!DOCTYPE svg PUBLIC "-//W3C//DTD SVG 1.1//EN" "http://www.w3.org/Graphics/SVG/1.1/DTD/svg11.dtd">
<svg width="100%" height="100%" viewBox="0 0 28 28" version="1.1" xmlns="http://www.w3.org/2000/svg" xmlns:xlink="http://www.w3.org/1999/xlink" xml:space="preserve" xmlns:serif="http://www.serif.com/" style="fill-rule:evenodd;clip-rule:evenodd;stroke-linejoin:round;stroke-miterlimit:2;">
    <path d="M18,12L10,12L10,16L14,16L10,16L10,20L12,20L12,28L16,28L16,20L18,20L18,12ZM0,20L2,20L2,28L6,28L6,20L8,20L8,12L0,12L0,20ZM26,24L22,24L22,28L26,28L26,24ZM28,20L28,12L20,12L20,20L22,20L22,24L26,24L26,20L28,20ZM6,6L2,6L2,10L6,10L6,6ZM16,6L12,6L12,10L16,10L16,6ZM26,6L22,6L22,10L26,10L26,6ZM12,-0L8,-0L8,4L12,4L12,-0ZM20,-0L16,-0L16,4L20,4L20,-0Z" style="fill:rgb(176,0,83);"/>
</svg>
