<?xml version="1.0" encoding="UTF-8" standalone="no"?>
<!DOCTYPE svg PUBLIC "-//W3C//DTD SVG 1.1//EN" "http://www.w3.org/Graphics/SVG/1.1/DTD/svg11.dtd">
<svg width="100%" height="100%" viewBox="0 0 28 28" version="1.1" xmlns="http://www.w3.org/2000/svg" xmlns:xlink="http://www.w3.org/1999/xlink" xml:space="preserve" xmlns:serif="http://www.serif.com/" style="fill-rule:evenodd;clip-rule:evenodd;stroke-linejoin:round;stroke-miterlimit:2;">
    <path d="M16,26L12,26L12,28L16,28L16,26ZM12,24L10,24L10,26L12,26L12,24ZM18,24L16,24L16,26L18,26L18,24ZM24,24L24,18L22,18L22,22L18,22L18,24L24,24ZM6,22L6,18L4,18L4,24L10,24L10,22L6,22ZM20,16L16,16L16,18L12,18L12,16L8,16L8,18L10,18L10,20L18,20L18,18L20,18L20,16ZM26,16L24,16L24,18L26,18L26,16ZM4,16L2,16L2,18L4,18L4,16ZM28,14L26,14L26,16L28,16L28,14ZM10,14L8,14L8,16L10,16L10,14ZM2,14L0,14L0,16L2,16L2,14ZM20,14L18,14L18,16L20,16L20,14ZM2,12L0,12L0,14L2,14L2,12ZM10,12L8,12L8,14L10,14L10,12ZM20,12L18,12L18,14L20,14L20,12ZM28,12L26,12L26,14L28,14L28,12ZM26,10L24,10L24,12L26,12L26,10ZM4,10L2,10L2,12L4,12L4,10ZM12,12L12,10L16,10L16,12L20,12L20,10L16,10L18,10L18,8L10,8L10,10L8,10L8,12L12,12ZM6,10L6,6L4,6L4,10L6,10ZM24,8L22,8L22,10L24,10L24,8ZM24,4L18,4L18,6L22,6L22,8L24,8L24,4ZM10,4L4,4L4,6L10,6L10,4ZM18,2L16,2L16,4L18,4L18,2ZM12,2L10,2L10,4L12,4L12,2ZM16,-0L12,-0L12,2L16,2L16,-0Z" style="fill:rgb(255,214,0);"/>
</svg>
