<?xml version="1.0" encoding="UTF-8" standalone="no"?>
<!DOCTYPE svg PUBLIC "-//W3C//DTD SVG 1.1//EN" "http://www.w3.org/Graphics/SVG/1.1/DTD/svg11.dtd">
<svg width="100%" height="100%" viewBox="0 0 11 10" version="1.1" xmlns="http://www.w3.org/2000/svg" xmlns:xlink="http://www.w3.org/1999/xlink" xml:space="preserve" xmlns:serif="http://www.serif.com/" style="fill-rule:evenodd;clip-rule:evenodd;stroke-linejoin:round;stroke-miterlimit:2;">
    <g id="Layer1">
        <path d="M5,9L5,10L6,10L6,9L7,9L7,7L4,7L4,9L5,9ZM10,9L9,9L9,10L10,10L10,9ZM1,3L1,10L2,10L2,3L3,3L3,1L2,1L2,0L1,0L1,1L0,1L0,3L1,3ZM10,3L10,0L9,0L9,3L8,3L8,5L9,5L9,9L10,9L10,5L11,5L11,3L10,3ZM6,6L5,6L5,7L6,7L6,6ZM6,6L6,0L5,0L5,6L6,6Z" style="fill:rgb(126,0,255);"/>
    </g>
</svg>
